HIERARCHY
ROOT Hips
{
	OFFSET	0.00	0.00	0.00
	CHANNELS 6 Xposition Yposition Zposition Zrotation Xrotation Yrotation
	JOINT LeftUpLeg
	{
		OFFSET	 0.126116	-0.065224	 0.014019
		CHANNELS 3 Zrotation Xrotation Yrotation
		JOINT LeftLeg
		{
			OFFSET	 0.000000	 0.569914	 0.000000
			CHANNELS 3 Zrotation Xrotation Yrotation
			JOINT LeftFoot
			{
				OFFSET	 0.000000	 0.544423	 0.000000
				CHANNELS 3 Zrotation Xrotation Yrotation
				JOINT LeftToeBase
				{
					OFFSET	 0.000000	 0.207117	 0.000000
					CHANNELS 3 Zrotation Xrotation Yrotation
					End Site
					{
						OFFSET	 0.000000	 0.207117	 0.000000
					}
				}
			}
		}
	}
	JOINT RightUpLeg
	{
		OFFSET	-0.124023	-0.065224	 0.008373
		CHANNELS 3 Zrotation Xrotation Yrotation
		JOINT RightLeg
		{
			OFFSET	 0.000000	 0.570047	 0.000000
			CHANNELS 3 Zrotation Xrotation Yrotation
			JOINT RightFoot
			{
				OFFSET	 0.000000	 0.544354	 0.000000
				CHANNELS 3 Zrotation Xrotation Yrotation
				JOINT RightToeBase
				{
					OFFSET	 0.000000	 0.207540	 0.000000
					CHANNELS 3 Zrotation Xrotation Yrotation
					End Site
					{
						OFFSET	 0.000000	 0.207540	 0.000000
					}
				}
			}
		}
	}
	JOINT Spine
	{
		OFFSET	 0.000184	 0.117403	 0.007763
		CHANNELS 3 Zrotation Xrotation Yrotation
		JOINT Spine1
		{
			OFFSET	 0.000000	 0.137269	 0.000000
			CHANNELS 3 Zrotation Xrotation Yrotation
			JOINT Spine2
			{
				OFFSET	 0.000000	 0.156879	 0.000000
				CHANNELS 3 Zrotation Xrotation Yrotation
				JOINT LeftShoulder
				{
					OFFSET	 0.080501	 0.160143	 0.002496
					CHANNELS 3 Zrotation Xrotation Yrotation
					JOINT LeftArm
					{
						OFFSET	 0.000000	 0.164363	 0.000000
						CHANNELS 3 Zrotation Xrotation Yrotation
						JOINT LeftForeArm
						{
							OFFSET	 0.000000	 0.364576	 0.000000
							CHANNELS 3 Zrotation Xrotation Yrotation
							JOINT LeftHand
							{
								OFFSET	 0.000000	 0.360812	 0.000000
								CHANNELS 3 Zrotation Xrotation Yrotation
								JOINT LeftHandIndex1
								{
									OFFSET	 0.000000	 0.086006	 0.000000
									CHANNELS 3 Zrotation Xrotation Yrotation
									JOINT LeftHandIndex2
									{
										OFFSET	 0.000000	 0.047237	 0.000000
										CHANNELS 3 Zrotation Xrotation Yrotation
										JOINT LeftHandIndex3
										{
											OFFSET	-0.004284	 0.038165	 0.000551
											CHANNELS 3 Zrotation Xrotation Yrotation
											End Site
											{
												OFFSET	-0.004284	 0.038165	 0.000551
											}
										}
									}
								}
							}
						}
					}
				}
				JOINT Neck
				{
					OFFSET	 0.000000	 0.176489	 0.000000
					CHANNELS 3 Zrotation Xrotation Yrotation
					JOINT Head
					{
						OFFSET	 0.000000	 0.077941	 0.001747
						CHANNELS 3 Zrotation Xrotation Yrotation
						End Site
						{
							OFFSET	 0.000000	 0.077941	 0.001747
						}
					}
				}
				JOINT RightShoulder
				{
					OFFSET	-0.080363	 0.159706	-0.000306
					CHANNELS 3 Zrotation Xrotation Yrotation
					JOINT RightArm
					{
						OFFSET	 0.000000	 0.164196	 0.000000
						CHANNELS 3 Zrotation Xrotation Yrotation
						JOINT RightForeArm
						{
							OFFSET	 0.000000	 0.365611	 0.000000
							CHANNELS 3 Zrotation Xrotation Yrotation
							JOINT RightHand
							{
								OFFSET	 0.000000	 0.360648	 0.000000
								CHANNELS 3 Zrotation Xrotation Yrotation
								JOINT RightHandIndex1
								{
									OFFSET	 0.000000	 0.069977	 0.000000
									CHANNELS 3 Zrotation Xrotation Yrotation
									JOINT RightHandIndex2
									{
										OFFSET	 0.000000	 0.052305	 0.000000
										CHANNELS 3 Zrotation Xrotation Yrotation
										JOINT RightHandIndex3
										{
											OFFSET	 0.009002	 0.042196	 0.000782
											CHANNELS 3 Zrotation Xrotation Yrotation
											End Site
											{
												OFFSET	 0.009002	 0.042196	 0.000782
											}
										}
									}
								}
							}
						}
					}
				}
			}
		}
	}
}
MOTION
Frames:    9
Frame Time: 0.03333334
-0.017432	 1.255514	 0.115083	 4.796828	 0.302101	 173.963500	-170.614900	 16.043330	 7.587873	 2.458215	-24.947700	 1.119687	 46.126610	 46.751020	-63.058700	 4.912823	 28.009650	-6.307259	-172.666400	 4.781500	-1.749833	-1.707721	-19.074620	 1.893524	-57.031760	 58.322830	 63.521680	-0.375444	 31.170380	 1.631998	 1.346143	 3.973352	-9.750199	 9.951365	 8.631833	-5.532347	-8.587305	-6.671129	 17.973700	-112.572800	 3.140137	 88.315780	 34.932760	 47.249920	-3.469970	 4.927013	-0.259474	 0.579430	-16.020420	 4.113076	-74.808200	-8.025439	 12.502670	-5.831190	-7.228703	 12.665640	 2.804234	 4.963066	-4.014628	-0.346955	 1.528192	-13.929950	 1.347994	-2.034200	 8.872307	-23.843000	 109.137600	 0.665490	-88.590530	-11.742280	 63.483260	 11.349680	-5.088222	-0.470253	 41.403160	-9.582078	 13.075610	-86.072170	 2.021950	 8.325932	 8.960834	 15.202860	 20.243160	-6.342599	-8.239867	-2.131385	 0.447455
-0.017462	 1.255273	 0.115204	 4.747241	 0.105622	 173.980000	-170.211600	 16.399460	 5.465299	 2.469363	-25.046860	 1.138251	 46.174210	 46.491610	-62.729890	 4.912824	 28.009660	-6.307253	-173.030400	 5.168682	 0.330205	-1.734844	-19.354970	 1.850090	-57.381830	 58.467350	 63.929220	-0.378299	 31.173870	 1.634830	 1.295262	 3.789666	-9.463868	 9.892901	 8.414519	-5.506253	-8.523081	-6.533424	 17.959220	-112.556500	 3.119811	 88.313000	 34.379510	 47.207410	-3.057434	 4.977339	-0.255799	 0.799955	-15.752170	 4.191396	-74.641000	-8.006737	 12.518010	-5.835816	-7.228788	 12.662080	 2.803748	 4.963066	-4.014628	-0.346955	 1.511437	-13.904490	 1.356555	-2.026064	 8.944776	-23.895340	 109.117300	 0.680988	-88.598400	-11.280940	 63.183280	 10.997820	-5.102696	-0.531313	 41.132090	-9.310937	 13.373640	-86.068150	 2.005852	 8.282510	 8.960454	 15.202920	 20.252790	-6.345233	-8.239867	-2.131385	 0.447455
-0.017421	 1.255092	 0.115221	 4.610332	-0.137280	 174.086600	-169.905000	 16.768400	 3.411227	 2.469805	-25.050800	 1.179635	 46.243550	 46.183980	-62.374780	 4.912827	 28.009680	-6.307239	-173.491800	 5.630826	 2.471009	-1.768495	-19.701660	 1.736984	-57.875400	 58.554490	 64.509250	-0.386855	 31.184320	 1.643315	 1.145187	 3.597727	-8.652417	 9.752761	 7.949563	-5.506262	-8.334086	-6.212676	 17.918480	-112.507900	 3.058917	 88.304640	 33.953810	 47.233810	-2.888738	 5.227471	-0.249984	 1.460919	-15.769120	 4.207080	-74.078000	-7.950690	 12.563940	-5.849709	-7.229043	 12.651420	 2.802293	 4.963066	-4.014628	-0.346955	 1.461224	-13.828210	 1.382244	-2.001162	 9.161822	-24.052500	 109.056500	 0.727432	-88.621940	-10.901610	 62.890760	 10.847530	-5.273921	-0.725040	 40.318600	-8.679125	 13.528550	-86.275610	 1.957628	 8.152417	 8.959249	 15.203120	 20.281650	-6.353133	-8.239867	-2.131385	 0.447455
-0.017425	 1.254790	 0.115043	 4.425371	-0.395434	 174.258600	-169.676700	 17.165020	 1.433934	 2.473982	-25.087990	 1.248790	 46.398910	 45.869340	-62.088090	 4.912832	 28.009700	-6.307216	-174.024700	 6.146609	 4.672482	-1.813209	-20.159950	 1.557389	-58.524520	 58.619910	 65.275940	-0.401057	 31.201670	 1.657400	 0.942520	 3.434828	-7.316957	 9.571157	 7.215889	-5.526414	-8.042350	-5.700945	 17.848490	-112.427200	 2.957815	 88.290890	 33.697910	 47.349210	-2.997726	 5.675146	-0.242133	 2.557353	-16.096790	 4.168370	-73.127750	-7.857648	 12.640140	-5.872867	-7.229464	 12.633740	 2.799878	 4.963066	-4.014628	-0.346955	 1.377865	-13.701690	 1.425002	-1.958111	 9.521729	-24.314130	 108.955700	 0.804568	-88.660910	-10.599640	 62.576410	 10.891800	-5.602199	-1.047740	 38.968100	-7.675011	 13.530430	-86.704210	 1.877635	 7.936550	 8.957006	 15.203450	 20.329540	-6.366240	-8.239867	-2.131385	 0.447455
-0.017501	 1.254354	 0.114588	 4.190345	-0.661624	 174.493600	-169.534400	 17.584100	-0.460754	 2.483453	-25.172110	 1.344646	 46.653280	 45.556870	-61.884930	 4.912839	 28.009740	-6.307182	-174.641200	 6.702133	 6.933526	-1.869391	-20.732060	 1.318324	-59.329910	 58.670380	 66.229850	-0.420826	 31.225800	 1.677006	 0.692355	 3.306171	-5.478921	 9.367737	 6.165621	-5.575657	-7.661830	-4.979220	 17.745510	-112.315000	 2.817184	 88.272000	 33.634270	 47.558740	-3.403193	 6.315239	-0.232222	 4.080329	-16.763350	 4.084693	-71.798320	-7.728120	 12.746060	-5.905304	-7.230054	 12.609130	 2.796519	 4.963066	-4.014628	-0.346955	 1.261818	-13.525790	 1.484760	-1.894621	 10.021840	-24.679990	 108.815500	 0.911990	-88.714930	-10.371200	 62.236050	 11.122350	-6.087412	-1.492751	 37.088720	-6.290013	 13.357770	-87.368100	 1.766408	 7.636247	 8.953377	 15.203930	 20.396150	-6.384480	-8.239867	-2.131385	 0.447455
-0.017626	 1.253864	 0.113945	 3.936895	-0.906817	 174.743400	-169.420900	 17.974170	-2.354894	 2.495637	-25.280160	 1.445909	 46.972960	 45.255820	-61.729950	 4.912846	 28.009790	-6.307147	-175.314300	 7.222387	 9.242897	-1.928781	-21.332050	 1.072735	-60.181500	 58.722530	 67.238680	-0.442039	 31.251660	 1.698043	 0.434430	 3.206995	-3.535722	 9.174248	 4.970636	-5.649524	-7.271075	-4.176900	 17.628540	-112.194700	 2.666345	 88.252080	 33.651470	 47.795250	-3.914820	 7.004709	-0.222030	 5.708891	-17.558380	 3.999723	-70.374070	-7.589105	 12.859560	-5.940372	-7.230689	 12.582750	 2.792918	 4.963066	-4.014628	-0.346955	 1.137269	-13.337310	 1.549195	-1.821884	 10.557300	-25.074710	 108.665300	 1.027300	-88.772520	-10.175080	 61.885300	 11.409150	-6.617963	-1.962022	 35.074550	-4.789445	 13.104930	-88.117940	 1.647200	 7.314236	 8.948840	 15.204470	 20.467570	-6.404046	-8.239867	-2.131385	 0.447455
-0.017630	 1.253621	 0.113693	 3.775625	-1.076527	 174.863400	-169.156400	 18.207840	-4.387362	 2.498236	-25.303080	 1.492382	 47.207530	 44.975550	-61.490870	 4.912850	 28.009810	-6.307129	-175.884800	 7.537555	 11.439780	-1.964169	-21.687240	 0.955754	-60.726600	 58.802800	 67.877770	-0.452245	 31.264100	 1.708165	 0.284570	 3.097447	-2.611191	 9.024514	 4.342581	-5.687688	-7.060827	-3.764893	 17.570850	-112.136900	 2.593810	 88.242620	 33.364960	 47.849030	-3.906288	 7.316304	-0.216182	 6.489630	-17.757010	 4.008495	-69.699190	-7.522212	 12.914100	-5.957342	-7.230994	 12.570070	 2.791187	 4.963066	-4.014628	-0.346955	 1.077336	-13.246730	 1.580310	-1.785188	 10.814470	-25.265450	 108.593100	 1.082805	-88.800120	-9.905556	 61.602700	 11.389490	-6.849308	-2.182068	 34.107400	-4.022016	 13.141920	-88.454730	 1.589897	 7.159392	 8.946417	 15.204740	 20.501910	-6.413458	-8.239867	-2.131385	 0.447455
-0.017479	 1.253651	 0.113938	 3.715578	-1.185196	 174.848400	-168.738100	 18.296160	-6.512720	 2.489759	-25.228000	 1.482540	 47.330510	 44.714520	-61.157020	 4.912850	 28.009810	-6.307133	-176.310600	 7.669023	 13.458510	-1.974183	-21.787410	 0.966232	-60.941520	 58.908090	 68.122470	-0.450838	 31.262380	 1.706770	 0.242812	 2.960297	-2.735293	 8.909645	 4.362039	-5.671202	-7.030597	-3.784866	 17.580560	-112.144900	 2.603794	 88.243900	 32.750970	 47.706990	-3.344939	 7.232166	-0.214831	 6.381850	-17.308650	 4.104138	-69.807290	-7.531435	 12.906590	-5.954998	-7.230951	 12.571810	 2.791425	 4.963066	-4.014628	-0.346955	 1.085598	-13.259210	 1.576017	-1.790311	 10.779040	-25.239120	 108.603000	 1.075153	-88.796310	-9.556837	 61.403710	 11.047770	-6.761979	-2.146767	 34.241220	-4.041968	 13.506880	-88.336070	 1.597794	 7.180734	 8.946760	 15.204700	 20.497170	-6.412160	-8.239867	-2.131385	 0.447455
-0.017302	 1.253950	 0.114502	 3.816226	-1.152354	 174.698800	-168.434500	 18.183610	-7.278525	 2.477150	-25.116020	 1.419409	 47.228650	 44.658810	-60.941280	 4.912845	 28.009780	-6.307154	-176.264100	 7.518600	 13.892400	-1.948849	-21.533650	 1.108520	-60.641350	 58.970310	 67.762430	-0.437877	 31.246590	 1.693915	 0.351551	 2.891900	-3.908010	 8.946023	 5.049376	-5.606158	-7.232503	-4.250791	 17.654860	-112.218300	 2.695937	 88.255970	 32.247740	 47.423980	-2.616390	 6.780968	-0.219388	 5.389277	-16.502610	 4.266217	-70.674950	-7.616385	 12.837300	-5.933470	-7.230565	 12.587920	 2.793624	 4.963066	-4.014628	-0.346955	 1.161710	-13.374270	 1.536526	-1.836533	 10.452340	-24.997080	 108.694700	 1.004677	-88.761250	-9.361963	 61.398670	 10.591820	-6.396172	-1.859839	 35.470510	-4.872198	 13.967350	-87.800130	 1.670579	 7.377402	 8.949782	 15.204360	 20.453560	-6.400207	-8.239867	-2.131385	 0.447455
